<svg id="Layer_1" data-name="Layer 1" xmlns="http://www.w3.org/2000/svg" viewBox="0 0 425.43 282.28"><defs><style>.cls-1{fill:#6356d7;}</style></defs><title>logolearn</title><path class="cls-1" d="M329,382.82c-28.32-.76-51.5-6.23-72.91-18.37a5.13,5.13,0,0,0-5.77.05,133.92,133.92,0,0,1-42,15.37c-11.92,2.23-24,3.67-36,2.55-19-1.77-37.33-6.14-54.46-15.13-14-7.32-26.63-16.22-37.46-27.6A141.21,141.21,0,0,1,43.54,213,135.61,135.61,0,0,1,71,154.37a141.57,141.57,0,0,1,48.53-39.21c13.71-6.77,28.14-11.53,43.4-13,9.89-.94,20-1.67,29.81-.85a136.46,136.46,0,0,1,29.24,5.86c9.85,3.1,19.13,8,28.73,11.88a6.62,6.62,0,0,0,5,0,125.42,125.42,0,0,1,29.52-12.3c7.13-1.85,14.38-3.26,21.62-4.62a102.5,102.5,0,0,1,30.42-.85,179.66,179.66,0,0,1,29.56,6c24.9,7.18,45.9,21,63.16,40.17a136.21,136.21,0,0,1,25.63,40.94,140.63,140.63,0,0,1,0,106.68,140,140,0,0,1-29.89,45.24,134.41,134.41,0,0,1-33.9,25.4c-12.47,6.55-25.38,11.79-39.29,14.09C343.46,381.28,334.32,382.15,329,382.82Zm-85.26-26.39c-1.74-1.44-2.92-2.52-4.19-3.46-14.19-10.48-25.46-23.65-34.51-38.65a136.44,136.44,0,0,1-18.81-53,144.18,144.18,0,0,1,1-45.66c4.47-23.9,14.28-45.49,30-64.17A150.5,150.5,0,0,1,241,129.09c2.51-1.92,2.39-2.4-.3-3.86A110.42,110.42,0,0,0,209.16,114c-19.91-3.94-39.82-4-59.69,1a132.93,132.93,0,0,0-31.71,12.45,129.64,129.64,0,0,0-40.68,35.3,133.49,133.49,0,0,0-15.89,27.05A125.13,125.13,0,0,0,51.06,255.7C54.32,284.59,65.9,309.91,86,331.07a130.06,130.06,0,0,0,104.19,40.72A132.92,132.92,0,0,0,235,360.87C237.82,359.64,240.48,358.1,243.74,356.43Zm19.73-.16a11,11,0,0,0,1.59,1.44,122.47,122.47,0,0,0,36.72,12.53,133.37,133.37,0,0,0,33.42,1.55,130.43,130.43,0,0,0,104.44-66.66c15.2-27.64,20.17-56.84,14.21-87.77q-9.37-48.66-48.68-79.1a129.75,129.75,0,0,0-52.91-24.36c-13.06-2.8-26.31-3.15-39.64-2.05a124.15,124.15,0,0,0-46.3,13.35c-2.8,1.42-2.86,2.15-.35,4.17,2.8,2.26,5.67,4.43,8.39,6.77,16.15,13.87,28,30.86,36.38,50.34a135.27,135.27,0,0,1,10.35,42.33,144.29,144.29,0,0,1-3.83,48.78,131.52,131.52,0,0,1-20.6,44.68c-6.58,9.08-13.57,17.8-22.25,25C270.89,350.22,267.33,353.1,263.47,356.27Zm-67.65-137.7a18.87,18.87,0,0,0,1.75,2.76c1.55,1.69,3.22,3.28,4.84,4.91l84.93,85.05c2.45,2.45,3.18,2.42,4.93-.54,2.18-3.69,4.05-7.58,6.31-11.22,1.76-2.85,1.06-4.71-1.21-7Q251.59,247,206,201.29c-.7-.7-1.34-1.7-2.19-2s-2.41.17-2.56.64C199.29,206.14,197.58,212.39,195.82,218.57Zm114.85,44.08a30.64,30.64,0,0,0-2.73-3.62q-24.85-24.73-49.77-49.43-19.37-19.24-38.67-38.53c-2.51-2.5-3.06-2.4-4.88.65-2.15,3.61-4.13,7.31-6.35,10.87-1.53,2.46-1.11,4.11,1,6.19Q247,226.31,284.59,264q8.81,8.81,17.63,17.59c1.34,1.34,2.89,2.57,3.69-.26C307.6,275.29,309,269.16,310.67,262.65ZM194.43,235.21c-.27,2.77-.72,4.69-.59,6.57.4,6,1.07,11.93,1.54,17.9a11.82,11.82,0,0,0,3.86,7.8q24.54,24.18,48.9,48.54c6.53,6.48,13.1,12.92,19.58,19.44,1.6,1.62,2.85,1.8,4.44,0,2.86-3.2,5.77-6.36,8.82-9.38,1.87-1.85,1.69-3.22-.09-5-6.41-6.42-12.67-13-19.08-19.43Q230.05,269.8,198.2,238A38.8,38.8,0,0,0,194.43,235.21Zm117.63,3.49.34,0c-.71-6.44-1.31-12.91-2.22-19.33a8.27,8.27,0,0,0-2.33-4.34q-34.08-34.2-68.26-68.28c-1.63-1.62-2.87-1.81-4.46-.05-2.89,3.18-5.86,6.28-8.81,9.4s-2.82,3,.05,5.87L297.8,233.4c3.61,3.61,7.2,7.23,10.87,10.77.57.55,1.69,1.13,2.27.91s1-1.39,1.07-2.19A32.51,32.51,0,0,0,312.06,238.7ZM204.48,288.85l-.86.62a20.09,20.09,0,0,0,1,3c3.42,6.52,6.55,13.24,10.43,19.48,8.94,14.42,20.76,26.2,34.43,36.21,2.82,2.06,5.14,2.14,7.7-.08.6-.52,1.27-1,1.91-1.44,1.33-1,1.47-2,.25-3.21-2-2-3.94-4-5.91-5.93Q231,315,208.52,292.6C207.22,291.3,205.83,290.1,204.48,288.85Zm96.58-97.53.63-.52a23.4,23.4,0,0,0-1.28-3.46c-3.61-6.54-7-13.26-11-19.5a116.6,116.6,0,0,0-32-32.4c-4.25-2.93-4.85-2.8-8.92.29-1.69,1.29-1.73,2.3-.21,3.82q25.07,24.91,50.08,49.9A17.36,17.36,0,0,0,301.06,191.32Z" transform="translate(-40.65 -100.54)"/></svg>